<?xml version="1.0" encoding="UTF-8" standalone="no"?>
<svg xmlns:dc="http://purl.org/dc/elements/1.1/" xmlns:cc="http://creativecommons.org/ns#" xmlns:rdf="http://www.w3.org/1999/02/22-rdf-syntax-ns#" xmlns:svg="http://www.w3.org/2000/svg" xmlns="http://www.w3.org/2000/svg" width="967.0014" height="219.99699" viewBox="0 0 967.00141 219.997" id="svg2985" version="1.1" style="fill-rule:evenodd">
  <title id="title837">Wort-Bild-Marke der Berliner Feuerwehr</title>
  <metadata id="metadata3005"></metadata>
  <defs id="defs3003"></defs>
  <g id="g2987" style="fill:#e6001a;fill-opacity:1" transform="matrix(1.2496989,0,0,1.2496989,-29.57849,-533.38524)">
    <g id="g2989" style="fill:#e6001a;fill-opacity:1">
      <g id="g2991" style="fill:#e6001a;fill-opacity:1">
        <path style="fill:#e6001a;fill-opacity:1;stroke:none" d="m 57.0801,506.659 c 5.76,2.304 9.216,9.432 8.928,17.496 -0.288,8.208 -3.168,15.984 -0.936,25.056 2.232,8.928 7.2,13.248 17.784,14.904 0.792,4.464 1.944,9 4.032,12.96 0.216,0.576 -5.472,3.96 -7.272,7.201 -0.792,1.367 2.808,5.903 4.536,5.471 3.024,-0.792 7.92,-6.48 8.064,-6.408 4.968,3.24 10.1519,6.264 15.6959,8.281 0,0 -7.488,-0.793 -16.0559,-0.145 -8.496,0.576 -26.352,2.593 -42.48,-1.008 -12.96,-2.808 -20.016,-13.248 -19.944,-24.408 0.072,-10.871 6.48,-18.648 8.064,-24.984 1.512,-6.335 0.36,-11.88 -0.72,-16.704 3.096,1.944 6.408,5.112 7.416,11.233 0.936,5.903 -1.584,10.871 -2.016,18.215 -0.432,7.632 2.16,14.4 4.968,18.648 2.808,4.176 7.92,7.992 12.096,9.288 4.608,1.368 13.608,2.016 13.752,-0.648 0.072,-2.664 -6.408,-2.304 -11.952,-3.96 -4.104,-1.224 -7.272,-3.6 -9.72,-7.631 -2.52,-4.105 -4.32,-10.224 -3.528,-18.145 0.792,-7.704 7.56,-17.64 9.576,-24.84 2.016,-6.984 1.224,-13.608 -0.288,-19.872 z m 141.9839,-0.288 c 0,0 -1.8,1.152 -1.8,12.24 -0.072,11.088 6.912,19.728 6.912,19.728 0.792,1.296 4.536,6.912 4.608,13.896 0.144,6.984 -1.44,11.593 -3.312,15.192 -1.8,3.456 -5.4,7.92 -11.88,9.432 -6.552,1.584 -9.864,1.512 -10.44,4.032 -0.576,2.376 8.856,1.08 12.528,0.216 3.744,-0.864 8.784,-2.664 12.744,-8.424 3.96,-5.688 5.184,-13.176 5.616,-17.64 0.432,-4.464 -0.144,-7.488 -1.584,-11.736 -1.512,-4.248 -0.648,-9.791 1.008,-13.608 1.728,-3.816 4.824,-5.832 6.768,-6.696 -1.008,3.384 -2.592,7.344 -2.592,13.536 0,5.977 2.304,9.649 3.816,11.737 5.688,7.919 6.768,12.959 5.328,22.031 -1.728,10.584 -12.888,20.016 -26.496,21.313 -13.464,1.295 -30.888,-0.432 -38.016,-0.432 -7.056,0 -10.8,1.007 -13.968,1.367 5.904,-2.448 10.512,-5.544 15.624,-9.503 0,0 6.264,6.047 8.28,6.695 1.872,0.649 5.328,-3.96 4.464,-5.616 -1.008,-1.872 -4.032,-4.248 -7.488,-7.056 1.944,-2.808 3.384,-6.552 4.536,-13.752 11.52,0.432 19.08,-9.864 19.152,-20.664 0.072,-10.728 -2.736,-11.591 -2.88,-17.784 -0.36,-14.688 9.072,-18.504 9.072,-18.504 z m -63.792,-10.296 c 0,1.44 -2.088,1.44 -2.088,0 0,-1.44 2.088,-1.44 2.088,0 z m -79.6319,-5.328 c 8.712,7.776 17.712,15.192 26.496,22.896 l 0.144,44.857 c -6.264,-0.937 -10.008,-3.169 -11.736,-10.009 -1.656,-6.912 0.144,-12.672 0.504,-24.048 0.288,-11.52 -5.76,-20.376 -18,-25.056 z m 78.4799,0.792 c -2.448,0.72 -2.16,0.864 -3.024,1.512 -0.792,0.648 -1.008,1.224 -1.44,1.368 -0.36,0.144 -1.728,0.144 -3.24,0.216 -1.44,0 -3.744,-0.072 -4.464,0.432 -0.72,0.432 0,2.736 0.72,3.528 0.72,0.792 1.512,2.16 3.24,2.52 1.8,0.432 2.592,0.144 3.456,0.216 0.864,0.144 2.376,0 3.168,0.288 0.936,0.36 1.584,1.296 0.432,1.728 -1.224,0.432 -3.312,0.288 -4.608,0.144 -1.296,-0.144 -2.808,0.216 -2.592,1.368 0.216,1.152 0.864,2.016 2.448,2.304 1.512,0.36 3.312,0.288 4.464,0.648 1.152,0.288 1.152,0.648 0.504,1.44 -0.72,0.864 -3.096,1.656 -4.248,2.232 -1.152,0.504 -1.8,0.793 -2.232,1.008 -0.432,0.216 -0.648,0.432 -1.152,0.792 -0.432,0.288 -1.08,0.864 -1.368,1.152 -0.36,0.504 -0.864,1.224 -1.512,1.224 -0.504,0.072 -1.584,-0.72 -1.728,-0.864 -0.792,-0.432 -2.88,-1.224 -5.256,-2.016 -2.376,-0.72 -5.4,-1.656 -5.904,-1.872 -0.432,-0.288 -1.44,-1.152 -1.8,-1.512 -0.288,-0.288 -1.008,-1.512 -1.008,-1.512 -0.288,-0.504 -0.36,-1.08 -1.224,-3.6 -0.864,-2.448 -2.088,-3.96 -2.952,-4.392 -0.864,-0.432 -1.728,-0.216 -2.232,-0.144 -0.504,0.144 -1.5119,1.008 -1.9439,1.44 -0.432,0.432 -0.864,0.792 -1.152,1.8 -0.288,1.008 1.656,5.04 1.656,5.04 0.504,2.52 2.2319,5.328 2.5199,5.832 0.216,0.433 1.008,1.512 1.584,2.232 0.648,0.72 1.656,1.728 2.664,2.808 1.008,1.08 2.592,2.232 3.888,3.169 1.296,0.863 4.68,2.591 4.68,2.591 2.592,1.513 4.248,2.16 4.32,2.232 0.072,0.144 0.36,0.36 0.36,0.505 0.072,0.143 0,0.287 -0.072,0.503 -0.072,0.144 -0.648,0.432 -1.224,0.864 -0.576,0.36 -2.736,1.152 -4.392,1.872 -1.656,0.792 -2.592,1.296 -3.528,1.657 -0.864,0.359 -1.656,0.647 -2.016,0.647 -0.288,0 -1.08,0.072 -1.368,-0.072 -0.36,-0.072 -0.936,-0.936 -0.936,-0.936 -0.504,-0.431 -2.016,-2.664 -2.592,-3.384 -0.504,-0.792 -1.584,-1.943 -2.232,-2.304 -0.648,-0.288 -1.3679,-0.36 -1.7279,-0.36 -0.36,0 -1.008,0.36 -1.44,0.504 -0.36,0.217 -0.792,0.504 -1.152,0.936 -0.36,0.36 -0.864,0.936 -1.008,1.297 -0.144,0.359 -0.432,1.079 -0.432,1.367 0,0.289 0.072,1.008 0.36,1.872 0.288,0.792 2.304,2.016 3.312,2.952 1.008,0.936 2.5919,2.377 3.4559,3.096 0.864,0.648 1.728,1.152 2.448,1.656 0.648,0.432 1.512,0.864 2.088,1.152 0.576,0.288 1.296,0.504 1.8,0.648 0.432,0.072 0.792,0.216 1.44,0.361 0.648,0.143 2.088,0.287 2.88,0.287 0.792,0 2.16,-0.144 3.024,-0.287 0.936,-0.145 3.168,-0.793 3.168,-0.793 1.728,-0.504 2.88,-1.152 3.096,-1.152 0.216,0 0.432,-0.072 0.72,0.144 0.288,0.216 0.72,1.656 0.72,1.656 0.36,0.864 0.864,2.593 1.224,3.385 0.36,0.791 1.368,2.231 1.512,2.88 0.144,0.647 0.216,1.151 0.144,1.367 -0.072,0.289 -0.288,0.504 -0.504,0.792 -0.288,0.289 -0.792,0.504 -1.224,0.648 -0.432,0.144 -1.152,0.576 -2.016,1.08 -0.792,0.576 -2.232,1.873 -3.312,2.808 -1.08,1.008 -2.232,2.664 -2.88,3.529 -0.648,0.935 -1.008,1.583 -1.296,2.231 -0.36,0.649 -0.648,1.512 -0.936,2.16 -0.36,0.576 -0.72,1.656 -0.864,2.376 -0.072,0.72 -0.432,1.944 -0.36,3.168 0.072,1.152 0.288,1.656 0.432,2.088 0.144,0.504 0.288,1.296 0.216,1.8 -0.072,0.505 -0.576,1.224 -0.792,1.512 -0.216,0.36 -0.72,0.792 -1.152,0.649 -0.432,-0.145 -1.152,-0.721 -2.592,-1.441 -1.44,-0.72 -2.736,-1.152 -3.168,-1.296 -0.36,-0.216 -1.152,-0.143 -1.44,0 -0.36,0.072 -1.008,0.72 -1.368,1.008 -0.36,0.288 -0.864,0.648 -1.008,1.008 -0.144,0.36 -0.504,0.36 -0.504,1.8 0,1.296 0.648,1.872 1.08,2.232 0.432,0.288 1.08,0.504 1.584,0.792 0.504,0.216 1.296,1.368 2.232,1.8 0.936,0.504 2.808,0.936 3.312,1.08 0.432,0.144 2.16,0.432 4.032,0.936 1.944,0.432 3.456,1.296 4.536,0.936 1.152,-0.287 1.656,-1.296 2.016,-2.016 0.36,-0.719 0.648,-1.943 1.08,-2.952 0.432,-1.08 0.864,-2.592 1.296,-3.6 0.432,-1.008 1.08,-2.016 1.584,-2.735 0.504,-0.721 1.296,-1.513 2.016,-2.305 0.72,-0.792 2.232,-2.088 2.88,-2.664 0.648,-0.576 1.728,-1.368 2.016,-1.512 0.216,-0.071 1.008,-0.864 1.368,-0.864 0.432,0 0.648,0.216 0.864,0.504 0.216,0.216 0.432,1.152 0.792,2.088 0.36,1.008 1.008,2.088 1.944,3.384 0.936,1.296 2.592,3.024 2.592,3.024 0,0 2.88,2.232 3.168,2.52 0.36,0.289 0.936,0.504 1.152,1.08 0.144,0.504 -0.648,1.728 -0.648,1.728 0,0 -1.8,0.864 -2.952,1.153 -1.152,0.287 -2.304,0.143 -3.96,0.719 -1.584,0.648 -1.944,2.736 -1.944,3.6 0,0.864 1.584,3.528 2.664,3.96 1.008,0.432 5.688,-0.864 7.416,-1.727 1.728,-0.937 3.456,-2.593 4.824,-3.745 1.368,-1.08 3.672,-3.024 4.176,-4.248 0.504,-1.296 -0.792,-4.32 -1.368,-7.919 -0.576,-3.673 -0.576,-6.697 -0.648,-9 -0.072,-2.305 0.072,-3.241 0.576,-3.889 0.576,-0.647 0.432,-2.16 0.216,-3.527 -0.216,-1.369 -0.792,-2.161 -1.08,-2.809 -0.216,-0.648 -1.152,-1.368 -1.728,-3.168 -0.648,-1.728 -1.152,-7.992 -1.368,-9.072 -0.288,-1.08 -1.44,-4.535 -1.368,-8.639 0.072,-4.104 3.024,-9.865 3.096,-13.177 0,-2.16 -0.72,-3.024 -0.864,-4.031 -0.144,-0.937 0.072,-2.737 0.36,-3.889 0.36,-1.08 0.792,-2.592 0.864,-4.176 0.072,-1.512 -0.216,-2.52 -0.576,-3.6 -0.36,-1.08 -0.72,-1.944 -0.72,-2.736 0.072,-0.792 0.864,-2.016 0.864,-3.168 -0.072,-1.152 -0.504,-1.944 -0.864,-2.376 -0.432,-0.432 -0.864,-0.72 -1.512,-0.864 -0.648,-0.216 -1.512,-0.072 -2.016,0.072 -0.504,0.144 -0.36,0.72 -1.296,0.648 -0.864,-0.144 -1.512,-1.224 -3.168,-1.656 -1.728,-0.36 -3.744,-0.504 -6.048,0.216 z m 66.384,-1.08 c 0.288,0.144 2.664,9 2.52,9.288 -2.952,1.224 -7.128,2.16 -11.448,6.84 -4.32,4.68 -7.416,11.448 -6.48,18.72 0.936,7.2 3.6,10.657 2.736,17.856 -1.08,8.496 -5.328,14.472 -14.04,15.264 V 513.5 Z m -31.536,-1.728 c 0,0 0.072,66.384 -0.072,70.632 -0.144,4.248 -0.36,5.257 -1.008,7.56 -0.648,2.304 -1.728,4.536 -3.384,7.129 -1.224,1.943 -3.456,4.535 -8.28,7.631 -4.824,3.168 -8.928,5.04 -11.304,6.264 -2.376,1.152 -9.648,4.824 -10.8,5.544 -1.224,0.792 -5.76,3.312 -6.048,3.312 -0.288,0 -4.104,-2.16 -6.624,-3.672 -2.52,-1.511 -7.776,-4.176 -12.744,-6.696 -2.52,-1.296 -6.84,-3.383 -10.5119,-5.76 -3.816,-2.448 -5.688,-4.824 -6.984,-7.487 -1.368,-2.665 -2.808,-6.409 -3.24,-8.353 -0.36,-2.016 -0.864,-4.176 -1.008,-7.2 -0.072,-3.024 0,-31.248 0,-31.248 v -37.584 z m -40.464,-7.992 c 16.416,0 37.944,2.88 37.512,3.024 l -74.8079,0.144 c 1.512,-0.936 18.7199,-3.168 37.2959,-3.168 z m 65.808,-8.568 c 1.512,0.072 25.776,29.304 25.416,30.456 -0.144,0.576 -8.784,6.48 -10.08,6.048 -1.224,-0.36 -6.408,-19.368 -7.416,-22.752 -1.008,-3.384 -8.784,-12.888 -7.992,-13.68 0,-0.072 0,-0.072 0.072,-0.072 z m -132.2639,-0.72 c 0,0 0,0.072 0.072,0.072 1.296,1.368 -7.416,9.936 -8.496,13.464 -1.152,3.528 -6.192,23.688 -7.056,23.832 -0.936,0.144 -9.792,-5.544 -9.936,-6.12 -0.072,-0.504 23.4,-31.536 25.416,-31.248 z m 57.6719,-0.864 -0.144,6.048 -6.984,0.288 c -7.632,0.432 -13.2479,0.936 -19.2959,2.088 -6.264,1.224 -7.2,1.872 -7.992,1.944 l -1.656,-6.696 7.272,-1.44 c 3.744,-0.576 18.9359,-2.016 18.9359,-2.016 z m 21.384,-0.144 c 2.592,0 6.48,0.144 11.664,0.792 10.296,1.152 19.296,3.024 19.224,3.024 0,0 -1.728,6.264 -1.728,6.264 -0.72,-0.144 0,-0.144 -6.408,-1.296 -5.76,-1.008 -14.544,-2.016 -21.528,-2.376 0,0 -5.256,-0.36 -5.256,-0.36 l 0.144,-5.832 c 0,0 1.296,-0.216 3.888,-0.216 z m -12.672,-5.256 c 2.952,0 5.112,2.16 5.256,4.752 0.144,2.592 0.144,6.552 0.144,6.552 h -10.8 l 0.144,-6.552 c 0,-2.232 2.304,-4.752 5.256,-4.752 z m -0.288,-11.016 c 0,0 2.16,9.864 12.672,10.44 7.848,0.432 11.664,-6.984 11.664,-6.984 0,0 1.152,7.488 9.288,9.288 7.704,1.728 13.032,-3.672 13.032,-3.672 l -1.44,6.912 c 0,0 -7.776,-1.512 -20.232,-2.664 -12.312,-1.152 -16.632,-0.504 -16.632,-0.504 0,0 -2.232,-5.832 -8.208,-5.76 -5.976,0.072 -8.28,5.544 -8.28,5.544 0,0 -13.968,0.288 -18.864,0.864 -4.8239,0.576 -18.5039,2.448 -18.5039,2.448 l -1.584,-7.056 c 0,0 5.472,4.896 11.88,3.672 6.264,-1.224 8.9999,-4.032 10.5119,-8.784 0,0 2.16,2.808 3.96,4.248 1.8,1.512 4.32,2.52 8.424,2.448 4.104,-0.072 7.128,-2.016 9.432,-4.536 2.232,-2.448 2.88,-5.904 2.88,-5.904 z m -38.7359,-2.448 c 1.152,1.368 2.592,2.52 4.248,3.024 1.584,0.504 3.024,0.792 5.256,0.072 0.216,4.392 -2.736,6.984 -6.192,7.632 -3.312,0.648 -7.92,-0.648 -10.152,-4.536 1.8,-0.36 3.024,-0.864 4.32,-2.088 1.296,-1.152 2.088,-2.376 2.52,-4.104 z m 77.0399,-0.576 c 0.72,3.816 2.952,5.976 6.984,6.48 0,0 -2.376,6.552 -10.224,5.544 -4.32,-0.576 -6.48,-5.544 -6.192,-8.208 3.384,1.584 7.776,0.072 9.432,-3.816 z m -25.56,-2.952 c 0.216,0 0.648,2.304 3.024,3.888 2.736,1.8 4.824,1.512 4.824,1.512 0,0 -1.368,7.272 -8.136,6.768 -6.84,-0.504 -7.92,-7.632 -7.92,-7.632 0,0 2.808,0.144 4.968,-1.08 2.16,-1.152 3.096,-3.456 3.24,-3.456 z m -25.488,0 c 0.144,0.72 1.584,2.664 3.096,3.528 1.584,0.864 3.6,1.152 5.4,0.792 -0.432,2.16 -1.152,3.384 -2.16,4.824 -1.008,1.44 -5.256,4.896 -10.8,1.8 -2.88,-1.656 -3.744,-5.616 -3.744,-5.616 0,0 2.88,0.072 4.68,-1.08 2.88,-1.728 3.312,-4.248 3.528,-4.248 z m 66.024,-10.008 c 0.216,0 0.36,0 0.36,0 0,0 -2.304,10.152 -2.592,10.584 -0.36,0.432 -1.08,-0.072 -2.016,0.72 -0.648,0.504 -1.368,2.88 -1.368,2.88 0,0 -0.432,1.224 -1.656,1.08 -1.728,-0.144 -2.52,-1.656 -2.736,-2.88 -0.216,-1.296 0.792,-2.664 1.152,-3.024 1.152,-1.296 4.752,-1.152 5.472,-1.728 0.72,-0.72 0.288,-4.176 0.648,-5.4 0.504,-1.944 2.016,-2.232 2.736,-2.232 z M 74.5041,437.971 c 0.432,0 1.152,0.144 1.8,0.936 0.864,1.08 1.008,2.304 1.152,2.88 0.072,3.024 -0.504,4.176 2.448,4.536 0.864,0.072 2.52,0.432 3.168,0.864 0.72,0.504 1.224,1.368 1.296,2.088 0,0.648 0.072,1.44 -0.144,2.16 -0.144,0.504 -0.36,0.864 -0.936,1.368 -0.504,0.432 -1.8,1.296 -2.52,0.792 -0.648,-0.504 -0.648,-2.736 -1.368,-3.672 -0.864,-1.008 -2.232,-0.648 -2.52,-1.224 -0.288,-0.648 -2.808,-10.656 -2.664,-10.656 0,-0.072 0.144,-0.072 0.288,-0.072 z m 80.4239,-4.176 c 2.016,-0.072 2.88,0.936 3.24,2.304 0.432,1.44 -0.144,2.448 -0.648,3.168 -0.576,0.792 -0.792,1.8 -0.432,2.808 0.36,1.08 2.232,0.792 4.536,2.088 1.224,0.72 1.656,3.456 0.576,4.968 -0.648,0.864 -1.368,1.368 -3.024,1.512 -0.288,0 -1.8,0.144 -1.944,-1.944 -0.072,-1.008 0.288,-4.176 -3.096,-4.248 -3.384,-0.072 -3.384,2.592 -3.456,3.168 -0.144,1.512 -1.08,1.8 -1.8,1.728 -0.72,0 -2.232,-0.216 -3.096,-2.088 -0.792,-1.872 0.144,-3.672 0.432,-3.96 2.016,-1.944 4.68,-0.936 5.472,-1.368 0.648,-0.36 0.864,-1.872 0.432,-3.024 -0.432,-1.08 -0.648,-2.448 -0.288,-3.24 0.288,-0.72 1.008,-1.8 3.096,-1.872 z m -54,-0.072 c 1.368,0 3.312,1.44 3.312,3.168 0,1.8 -0.72,2.16 -0.864,2.592 -0.216,0.432 -0.072,1.368 0.144,1.728 0.216,0.432 0.432,0.648 1.008,0.864 0.648,0.144 1.512,-0.144 2.88,-0.072 1.44,0.072 2.088,0.36 2.592,0.936 0.504,0.648 0.792,1.152 0.864,2.52 0.072,1.512 -0.576,2.52 -0.864,2.808 -0.288,0.36 -0.576,0.576 -0.864,0.72 -0.36,0.216 -0.936,0.36 -1.224,0.36 -0.288,0.072 -1.008,0 -1.512,-0.576 -0.576,-0.576 -0.72,-1.224 -0.864,-1.656 -0.144,-0.504 -0.504,-2.736 -3.024,-2.736 -2.448,0.072 -2.8079,1.44 -3.0959,2.592 0,0 -0.288,2.16 -0.648,2.736 -0.432,0.648 -0.864,1.224 -1.584,1.368 -0.648,0.216 -1.944,-0.072 -2.52,-0.432 -0.648,-0.288 -1.008,-0.792 -1.296,-1.368 -0.288,-0.504 -0.432,-1.368 -0.432,-2.016 0.072,-0.648 0.288,-1.656 0.72,-2.16 0.648,-0.936 1.872,-1.944 3.456,-2.232 1.512,-0.288 1.872,-1.872 1.296,-2.88 -0.576,-1.008 -0.864,-1.08 -0.936,-3.096 -0.072,-2.016 2.088,-3.168 3.4559,-3.168 z m 27.792,-2.232 c 2.304,0 3.312,1.584 3.312,3.384 0,1.872 -0.864,2.088 -1.152,2.952 -0.288,0.792 -0.432,2.304 0.288,2.808 1.224,0.792 3.312,0.216 4.68,1.512 1.584,1.584 1.368,2.376 1.08,3.96 -0.36,1.512 -1.872,2.232 -3.024,2.376 -1.152,0.072 -2.016,-1.152 -2.304,-2.16 -0.216,-1.008 -0.144,-3.816 -3.24,-3.816 -3.096,0 -3.024,3.024 -3.168,3.528 -0.072,0.288 -0.576,2.16 -1.872,2.304 -2.376,0.216 -3.024,-0.864 -3.528,-1.8 -0.216,-0.576 -0.576,-2.232 0,-3.528 0.504,-1.224 3.096,-1.8 5.328,-2.016 1.368,-0.144 1.296,-2.592 1.008,-3.456 -0.36,-0.936 -1.008,-1.728 -0.936,-2.808 0.144,-1.224 1.224,-3.312 3.528,-3.24 z m -0.576,-4.68 c -4.968,0.144 -6.696,3.888 -6.984,4.536 -0.288,0.72 -0.576,1.872 -0.72,2.808 -0.072,0.936 0.432,2.88 0.072,3.24 -0.288,0.36 -1.728,0.072 -3.24,1.368 -1.656,1.44 -2.088,3.456 -2.304,3.456 -0.216,0 -0.432,-1.008 -1.296,-1.872 -0.864,-0.864 -1.44,-1.584 -2.304,-1.872 l -2.376,-0.72 c 0,0 0,-3.096 -0.864,-4.824 -0.864,-1.656 -3.456,-3.96 -7.416,-3.888 -3.8879,0.072 -5.9759,1.728 -7.3439,4.392 -1.368,2.736 -0.216,6.264 -0.072,6.696 -0.144,0.36 -1.296,0.216 -2.808,1.8 -1.368,1.368 -2.304,3.888 -2.304,3.888 0,0 -1.008,-1.584 -2.88,-2.664 -1.728,-0.936 -2.664,-0.504 -3.024,-0.936 -0.216,-0.144 0.288,-1.728 -1.08,-4.536 -1.872,-3.672 -5.904,-4.32 -9.072,-3.744 -1.584,0.288 -3.168,1.584 -3.168,1.584 l 13.176,50.112 v 17.208 l -23.616,-20.16 c 0,0 2.952,-3.24 5.76,-7.776 3.96,-6.48 6.912,-8.856 4.968,-10.728 -2.088,-1.872 -10.368,5.256 -15.408,11.304 -1.872,2.304 -21.816,25.416 -21.528,27.504 0.288,2.088 13.176,10.728 15.048,10.152 1.728,-0.576 4.536,-9.72 4.536,-9.72 0,0 2.376,7.56 2.232,13.321 -0.216,5.76 -1.512,12.095 -5.112,17.351 -0.792,-5.471 -3.168,-8.784 -6.768,-11.952 -5.256,-4.608 -12.384,-5.832 -12.312,-5.616 2.304,9.432 3.888,15.408 2.376,22.753 -1.584,7.344 -8.424,11.016 -8.64,25.919 -0.216,14.832 9.288,28.008 23.616,30.816 14.256,2.736 31.608,1.656 39.816,1.008 8.28,-0.648 20.5919,-1.872 30.3119,0.936 3.816,1.152 9.432,4.896 10.872,4.896 1.512,0 6.624,-4.104 12.6,-5.04 9.792,-1.512 19.728,-1.584 29.664,-1.368 9.936,0.216 19.872,0.72 29.808,0.36 11.952,-0.432 21.6,-4.968 27.72,-15.264 2.088,-3.528 4.104,-7.776 4.104,-16.56 0,-9 -3.168,-13.968 -4.824,-16.703 -1.656,-2.665 -4.896,-5.113 -4.608,-12.241 0.288,-7.056 2.16,-16.128 3.528,-19.512 -3.312,0.36 -10.224,3.168 -13.68,6.552 -4.752,4.68 -5.688,11.88 -5.688,11.88 -2.808,-3.168 -5.04,-13.104 -5.112,-16.848 -0.216,-6.408 1.944,-14.688 2.16,-14.688 0.216,0 1.584,4.392 1.584,4.392 0.648,1.296 0.936,4.392 3.168,5.04 2.16,0.649 14.976,-7.848 14.976,-9.576 -0.072,-3.312 -15.192,-19.512 -20.016,-25.848 -4.68,-6.336 -14.688,-15.12 -16.704,-13.464 -2.016,1.656 0.936,5.4 4.104,10.08 l 5.904,8.64 -23.184,20.232 0.072,-18.216 13.536,-49.752 c 0,0 -6.048,-2.592 -9.072,-0.504 -5.328,3.6 -4.464,7.776 -4.464,7.776 0,0 -1.656,0.072 -3.528,1.152 -1.512,0.792 -2.016,2.304 -2.52,2.376 -0.144,0 -0.288,-1.8 -1.44,-3.384 -0.792,-1.152 -2.736,-2.448 -3.24,-2.448 -0.216,-0.792 0.144,-2.232 0,-3.168 -0.144,-1.008 -0.216,-2.52 -0.648,-3.384 -0.36,-0.792 -1.944,-3.96 -6.984,-4.464 -4.968,-0.504 -7.704,3.888 -8.064,4.608 -0.216,0.432 -0.432,4.032 -0.576,4.32 -0.216,0.288 -1.8,0.432 -3.024,1.368 -1.872,1.44 -2.232,3.456 -2.304,3.384 0,0 -0.648,-2.16 -1.872,-3.312 -1.296,-1.152 -2.952,-1.728 -2.952,-1.728 0,0 0,-2.952 -0.144,-3.96 -0.072,-1.008 -0.36,-2.016 -0.648,-2.664 -0.288,-0.576 -1.872,-4.032 -7.344,-4.104 -0.144,0 -0.288,0 -0.432,0 z" id="path2993"></path>
        <g id="g2995" style="fill:#e6001a;fill-opacity:1">
          <path style="fill:#e6001a;fill-opacity:1;stroke:none" d="m 524.288,528.188 c 2.88,1.439 5.76,3.239 5.76,9.719 0,6.336 -2.808,8.64 -4.752,9.864 -2.448,1.512 -6.12,1.8 -13.032,1.8 v -22.464 c 7.344,0 10.296,0.216 12.024,1.081 z m 252.144,0.359 c 3.6,1.944 5.256,4.824 5.256,9.505 0,4.823 -2.016,8.063 -5.616,9.935 -3.672,1.872 -7.92,1.584 -12.456,1.584 v -22.464 c 6.336,0 9.216,-0.432 12.816,1.44 z M 748.64,514.363 v 81.864 h 14.976 c 0,0 0,-33.912 0,-33.912 5.832,0 10.296,0.289 11.808,5.832 3.456,12.6 5.904,28.08 5.904,28.08 h 16.128 c 0,0 -5.112,-22.032 -8.424,-29.448 -3.384,-7.416 -5.976,-8.064 -7.128,-9.576 2.16,-0.648 6.984,-2.088 10.512,-6.911 6.12,-8.209 6.192,-22.537 -0.648,-30.025 -4.32,-4.608 -11.52,-5.688 -16.056,-5.904 -4.536,-0.288 -27.072,0 -27.072,0 z m -59.832,0 v 81.864 h 14.904 v -35.64 h 20.736 v 35.64 h 14.976 v -81.864 h -14.976 v 32.544 h -20.736 v -32.544 z m -52.416,0 v 81.864 h 44.928 v -13.68 h -30.384 v -22.464 h 26.856 v -13.176 h -26.856 v -18.936 h 29.016 l -0.072,-13.608 z m -86.256,0 c 0.576,16.92 2.808,48.816 3.024,51.696 0.792,10.152 3.168,20.088 4.392,30.168 h 18.288 c 4.608,-22.536 10.872,-55.656 12.312,-65.88 1.224,10.153 8.28,43.56 12.816,65.88 h 17.856 c 0.072,-0.144 3.816,-20.736 4.824,-30.528 l 2.736,-51.336 h -15.408 v 48.241 l -1.44,17.351 c 0,0 -1.08,-12.168 -2.376,-18.288 l -10.08,-47.304 h -17.424 c 0,0 -8.208,39.024 -10.08,48.672 -1.8,9.648 -1.08,10.728 -2.016,15.552 -0.072,0.144 -1.08,-8.064 -1.368,-17.856 -0.36,-9.792 -0.648,-46.368 -0.648,-46.368 z m -52.848,81.864 h 14.976 c 0,0 -0.36,-32.976 0,-33.912 4.176,0 9.504,-0.504 11.304,4.896 2.736,8.136 6.12,29.016 6.12,29.016 h 16.416 c -3.096,-11.088 -5.976,-26.064 -10.08,-32.328 -2.664,-3.96 -5.472,-6.623 -5.472,-6.623 6.192,-2.233 8.28,-3.889 10.944,-7.993 4.104,-6.408 5.256,-15.264 2.16,-23.616 -2.664,-7.056 -8.352,-9.864 -17.352,-11.016 -2.952,-0.359 -14.688,-0.216 -29.016,-0.216 z M 442.28,514.363 v 81.864 h 44.856 v -13.68 h -29.88 v -22.464 h 26.352 v -13.176 h -26.352 v -18.936 h 28.584 v -13.608 z m -63.864,0 0.072,54.504 c 0.072,13.753 6.552,28.584 26.424,28.584 19.8,0 26.28,-15.48 26.28,-28.512 l 0.072,-54.576 h -14.976 c 0,0 0,52.992 0,52.992 0,9.792 -4.104,16.921 -11.52,16.848 -7.416,-0.072 -11.376,-6.12 -11.376,-16.848 v -52.992 z m -51.48,0 v 81.864 h 44.856 v -13.68 h -29.88 v -22.464 h 26.424 v -13.176 h -26.424 v -18.936 h 28.584 v -13.608 z m -54.576,0 v 81.864 h 14.976 v -34.776 h 25.488 v -13.68 h -25.488 v -19.8 h 27.72 v -13.608 z" id="path2997"></path>
          <path style="fill:#e6001a;fill-opacity:1;stroke:none" d="m 281.936,465.043 c 3.168,-0.072 9.792,0 11.88,0.864 5.112,2.088 7.632,5.688 7.632,11.088 0,5.472 -2.52,9.36 -6.768,11.448 -2.736,1.296 -14.4,0.792 -14.4,0.792 v -24.192 c 0,0 0.648,0 1.656,0 z m 325.656,-28.152 c 5.4,1.152 7.056,5.976 7.2,10.944 0.072,4.968 -1.944,9.864 -6.912,11.736 -4.248,1.152 -8.928,0.648 -13.32,0.648 v -23.76 c 4.32,0.072 8.712,-0.36 13.032,0.432 z M 285.32,436.387 c 7.416,0 13.464,0.936 13.464,10.296 0,11.448 -9.216,11.232 -18.504,11.304 0,0 0,-21.6 0,-21.6 1.224,0 2.376,0 3.528,0 0.504,0 1.008,0 1.512,0 z m 90.504,-0.072 c 4.68,0.144 9.432,-0.36 13.824,1.008 4.32,1.296 6.192,4.968 6.192,10.152 0,8.424 -3.384,11.736 -8.856,12.384 -5.4,0.648 -5.112,0.432 -11.16,0.432 z m 211.248,-6.912 v 67.32 h 7.488 c 0,0 0,-24.408 0,-29.952 8.424,0 13.752,-0.936 16.92,9.288 3.168,10.296 3.384,13.32 4.968,20.664 4.32,0 8.28,0 8.28,0 -1.872,-8.568 -4.32,-19.44 -6.768,-24.696 -1.728,-3.672 -3.168,-5.04 -5.472,-6.408 7.992,-2.808 10.008,-10.296 10.296,-18.072 0.144,-7.56 -3.096,-15.192 -10.8,-17.424 -8.208,-1.224 -16.632,-0.72 -24.912,-0.72 z m -45.432,0 0.072,67.32 h 32.904 l -0.072,-7.128 -25.488,-0.144 0.144,-23.976 h 22.464 v -7.488 H 549.2 v -21.528 l 24.696,-0.072 v -6.984 z m -53.208,0 0.072,67.32 h 7.488 v -55.44 l 20.88,55.44 h 10.296 l 0.072,-67.32 h -7.488 v 54.72 l -20.592,-54.72 z m -36.936,0 v 6.984 h 9.72 v 53.28 h -10.584 v 7.056 h 28.584 v -7.056 h -10.512 v -53.28 h 9.648 v -6.984 z m -36.504,0 v 67.32 h 29.88 v -7.056 h -21.96 v -60.264 z m -47.088,0 v 67.32 h 7.92 v -29.952 c 9.144,-0.216 14.472,0.792 16.992,10.296 1.728,6.48 3.24,13.104 4.824,19.656 0,0 8.28,-0.072 8.28,0 -0.864,-3.672 -3.384,-13.824 -4.608,-18.432 -1.224,-4.608 -2.664,-9.648 -7.488,-12.528 l -0.072,-0.144 c 3.528,-1.44 5.688,-2.304 8.136,-7.704 2.448,-5.4 2.736,-15.192 0.216,-20.088 -2.52,-4.824 -6.768,-8.424 -14.472,-8.424 z m -44.496,0 v 67.32 h 33.48 v -7.488 h -25.56 v -23.76 h 22.464 v -7.488 h -22.464 v -21.6 h 24.624 v -6.984 z m -50.616,0 v 67.32 c 15.048,0.072 22.32,1.584 29.88,-4.032 6.696,-4.968 8.496,-16.776 4.68,-24.048 -2.376,-4.68 -6.984,-7.488 -11.16,-7.416 2.016,-0.72 10.512,-2.952 10.512,-15.12 0,-12.168 -8.136,-16.704 -16.56,-16.704 z" id="path2999"></path>
        </g>
      </g>
    </g>
  </g>
</svg>
